<svg width="20" height="20" viewBox="0 0 20 20" xmlns="http://www.w3.org/2000/svg"><g fill="none" transform="translate(4)"><path d="m6 20a.5.5 0 0 1 -.4-.2c-.05-.06-1.41-1.8-2.79-4.38-.81-1.5-1.46-3-1.93-4.41a16.19 16.19 0 0 1 -.88-5.01 6 6 0 0 1 12 0c0 1.54-.3 3.22-.88 5a27.67 27.67 0 0 1 -1.93 4.42c-1.38 2.58-2.74 4.32-2.79 4.39a.5.5 0 0 1 -.4.19zm0-16a2 2 0 1 0 0 4 2 2 0 0 0 0-4z" fill="#000"/><path d="m6 1a5 5 0 0 1 5 5c0 3.25-1.46 6.65-2.68 8.94a34.38 34.38 0 0 1 -2.32 3.72c-.5-.7-1.4-2.03-2.3-3.7-1.25-2.31-2.7-5.71-2.7-8.96a5 5 0 0 1 5-5zm0 3a2 2 0 1 0 0 4 2 2 0 0 0 0-4z" fill="#f99157"/><path d="m6 9a3 3 0 1 1 0-6 3 3 0 0 1 0 6zm0-5a2 2 0 1 0 0 4 2 2 0 0 0 0-4z" fill="#000"/></g></svg>
