<svg xmlns="http://www.w3.org/2000/svg" viewBox="0 0 950 184">
  <g fill="none" fill-rule="evenodd">
    <path fill="#EA882D" d="M56.84 34.82L105.81 34.56 85.41 164.17 35.7 164.17 15.3 34.56z" transform="translate(47)"/>
    <path fill="#FBDA1D" d="M56.84 34.82L95.42 34.56 75.02 164.17 35.7 164.17 15.3 34.56z" transform="translate(47)"/>
    <path fill="#FFFFFE" d="M3.43 22.61L110.63 22.61 110.63 34.56 3.43 34.56z" transform="translate(47)"/>
    <path fill="#0A0B09" d="M6.21 31.78h101.64V25.4H6.2v6.38zM.65 37.35h112.76V19.83H.65v17.52z" transform="translate(47)"/>
    <path fill="#FFFFFE" d="M89.86 3.19L97.64 21.12 15.67 21.12 23.46 3.19z" transform="translate(47)"/>
    <path fill="#0C0D0B" d="M19.91 18.34h73.5L88.02 5.97H25.3L19.9 18.34zm81.98 5.56H11.43L21.63.41h70.05l10.2 23.5z" transform="translate(47)"/>
    <path fill="#0A0B09" d="M30.66 161.39h52.37l19.52-124.03-45.72.24-45.69-.24L30.66 161.4zm57.12 5.56H25.91L4.63 31.77l52.21.26 52.22-.26-21.28 135.18z" transform="translate(47)"/>
    <path fill="#FFFFFE" d="M107.29 71.17L98.15 122.71 56.66 122.26 15.17 122.71 6.03 71.17z" transform="translate(47)"/>
    <path fill="#0A0B09" d="M56.63 119.48l39.19.42 8.15-45.95H9.35l8.15 45.95 39.13-.42zm43.85 6.04l-43.85-.48-43.79.48L2.71 68.39h107.9l-10.13 57.13z" transform="translate(47)"/>
    <g>
      <path fill="#FFFFFE" d="M189.33 8.52h3.96a3.96 3.96 0 0 1 3.96 3.96v1.32a3.96 3.96 0 0 1-3.96 3.96h-3.96v3.97a3.96 3.96 0 0 1-3.97 3.96h-1.32a3.96 3.96 0 0 1-3.96-3.96v-3.97h-3.96a3.96 3.96 0 0 1-3.97-3.96v-1.32a3.96 3.96 0 0 1 3.97-3.96h3.96V4.55A3.96 3.96 0 0 1 184.04.6h1.33a3.96 3.96 0 0 1 3.96 3.96v3.97z" transform="translate(0 6)"/>
      <path fill="#2D2E2C" d="M15.29 61.54a15.24 15.24 0 1 1 0-30.47 15.24 15.24 0 0 1 0 30.47m0-21.5a6.28 6.28 0 1 0 .01 12.56 6.28 6.28 0 0 0-.01-12.57M173.95 99.2a7.17 7.17 0 1 1 0-14.35 7.17 7.17 0 0 1 0 14.34" transform="translate(0 6)"/>
      <path fill="#E67846" d="M39.49 140.43a7.17 7.17 0 1 1 0-14.35 7.17 7.17 0 0 1 0 14.35z" transform="translate(0 6)"/>
    </g>
    <g fill="#FFFFFE">
      <path d="M48.45 66.38a13.08 13.08 0 0 0 1.32-7.76c-.13-1.02-.5-2-1.12-2.95a13.6 13.6 0 0 0-2.23-2.64c-1.62-1.42-3.84-2.32-6.65-2.69-2.81-.37-5.79-.4-8.94-.1-3.14.3-6.2.81-9.19 1.52-2.98.71-5.45 1.4-7.4 2.08L12.1 76.08a16.1 16.1 0 0 0 6.9 2.7c2.71.43 5.5.47 8.38.1 2.88-.38 5.74-1.1 8.58-2.19a27.08 27.08 0 0 0 7.46-4.21 19.26 19.26 0 0 0 5.03-6.1zM17.48 19.01l-2.03 21.53a63.23 63.23 0 0 0 8.38-.6c2.06-.28 4.21-.7 6.45-1.28a32.8 32.8 0 0 0 6.34-2.33c2-.98 3.7-2.2 5.08-3.66a9.22 9.22 0 0 0 2.49-5.33c.34-2.64.13-4.82-.61-6.55a8.34 8.34 0 0 0-3.4-3.96 12.64 12.64 0 0 0-5.28-1.68c-2-.2-4.05-.16-6.15.1-2.1.28-4.14.75-6.14 1.43-2 .67-3.7 1.45-5.13 2.33zm41.94 33a24.06 24.06 0 0 1 2.03 7.72c.27 2.78.1 5.55-.51 8.33-.6 2.7-1.86 5.23-3.75 7.56a30.71 30.71 0 0 1-7.01 6.25 43.55 43.55 0 0 1-9.24 4.57 48.14 48.14 0 0 1-10.3 2.49 40.5 40.5 0 0 1-10.32 0 25.63 25.63 0 0 1-9.13-2.9 7.66 7.66 0 0 1-3.1 3 5.4 5.4 0 0 1-3.4.56 4.72 4.72 0 0 1-2.85-1.83 8.16 8.16 0 0 1-1.52-4.27c.6-6.09 1.22-12.43 1.83-19.04L3.98 44.5c.6-6.7 1.18-13.34 1.72-19.9.54-6.57 1.08-12.9 1.63-19C7.8 3.73 8.66 2.42 9.9 1.7c1.26-.71 2.54-1 3.86-.86 1.32.13 2.5.57 3.5 1.32 1.02.74 1.53 1.62 1.53 2.64 0 .4-.03.8-.1 1.17-.07.37-.1.72-.1 1.06a57.15 57.15 0 0 1 12.13-3c3.96-.5 7.58-.31 10.87.56 3.28.88 6.16 2.48 8.63 4.78 2.47 2.3 4.28 5.48 5.43 9.54.47 1.63.58 3.57.3 5.84a36.67 36.67 0 0 1-4.21 12.95 14.2 14.2 0 0 1-3.2 4.16c2.5.81 4.67 2.12 6.5 3.9a20.81 20.81 0 0 1 4.37 6.26zM158.47 105.63c.38-2.23.58-4.16.61-5.79.04-1.62-.12-2.64-.45-3.04a26.9 26.9 0 0 0-4.47 4.82A49.18 49.18 0 0 0 147.5 114a31.33 31.33 0 0 0-1.57 5.73c-.28 1.7-.28 3.12 0 4.27.26 1.15.9 1.8 1.92 1.93 1.29.2 2.49-.32 3.6-1.58a19.23 19.23 0 0 0 3.05-4.92 46.3 46.3 0 0 0 2.39-6.75c.68-2.47 1.2-4.83 1.57-7.06zm34.43-44.07a7.09 7.09 0 0 1 1.72 3.66 4.65 4.65 0 0 1-.76 3.65 59.26 59.26 0 0 1-9.24 11.78c-3.72 3.72-8.5 6.8-14.31 9.24.2 2.91.2 6.23 0 9.95-.21 3.72-.7 7.52-1.48 11.38a73.92 73.92 0 0 1-3.15 11.11 31.28 31.28 0 0 1-5.07 9.1 17.69 17.69 0 0 1-7.26 5.37c-2.78 1.08-6 1.05-9.65-.1-3.52-1.08-6.06-2.88-7.62-5.38a16.6 16.6 0 0 1-2.38-8.78 33.2 33.2 0 0 1 1.88-10.82 56.86 56.86 0 0 1 5.33-11.42c2.26-3.76 4.9-7.3 7.92-10.61a57.61 57.61 0 0 1 9.6-8.53c.06-1.63.1-3.13.1-4.52 0-1.39.03-2.86.1-4.42a46.4 46.4 0 0 1-5.94 6.25 39.3 39.3 0 0 1-7.37 5.13 28.43 28.43 0 0 1-8.32 2.94c-2.91.54-5.9.4-8.94-.4-2.84-.82-5.1-2.3-6.75-4.48-.5-.65-.95-1.36-1.37-2.09a31.58 31.58 0 0 1-3.15 4.23 14.49 14.49 0 0 1-5.69 4.31c-2.1.85-4.16 1.14-6.19.87a11.92 11.92 0 0 1-5.79-2.54 15.31 15.31 0 0 1-4.47-6 65.05 65.05 0 0 1-3.7 4.88 22.3 22.3 0 0 1-4.17 3.86 15.89 15.89 0 0 1-5.07 2.38c-1.86.51-4.05.7-6.55.56a10.67 10.67 0 0 1-6.04-2.03 12.29 12.29 0 0 1-3.71-4.67 22.67 22.67 0 0 1-1.83-6.24c-.34-2.27-.5-4.55-.5-6.86 0-2.3.08-4.48.25-6.55l.45-5.22c.2-1.83.53-3.96.97-6.4a410.16 410.16 0 0 1 3-14.88c.53-2.4.98-4.52 1.31-6.35a8.13 8.13 0 0 1 3.4-3.5 5.6 5.6 0 0 1 3.87-.5 5.61 5.61 0 0 1 3.2 2.23 7.75 7.75 0 0 1 1.31 4.72 447.41 447.41 0 0 0-2.9 13.3c-.63 3.18-1.26 6.55-1.87 10.1a97.73 97.73 0 0 0-1.22 9.8c-.2 2.98-.15 5.49.16 7.52.3 2.03 1 3.14 2.08 3.35 1.96.34 3.79-.4 5.48-2.23a28.64 28.64 0 0 0 4.67-7.27 76.95 76.95 0 0 0 3.86-10.1c1.15-3.72 2.15-7.3 3-10.71.84-3.42 1.54-6.45 2.08-9.09a69 69 0 0 1 1.22-5.28c.47-1.7 1.1-3.08 1.87-4.16a8.18 8.18 0 0 1 3.61-2.64c2.37-.27 4.21.22 5.53 1.47 1.32 1.25 2.02 3.06 2.09 5.43-.55 2.64-1.16 5.45-1.83 8.43-.68 2.98-1.32 5.94-1.93 8.88-.61 2.95-1.12 5.8-1.53 8.53-.4 2.75-.65 5.2-.76 7.36-.1 2.17 0 4 .3 5.49.31 1.49.94 2.44 1.89 2.84 2.16.34 4.1-.78 5.83-3.35 1.34-1.99 2.75-4.96 4.22-8.9v-.7c.06-3.61.39-7.27.96-10.96a96.5 96.5 0 0 1 2.29-10.71c.95-3.46 2-6.57 3.15-9.35a5.15 5.15 0 0 1 3.35-3.14 7.48 7.48 0 0 1 4.47-.05 5.88 5.88 0 0 1 3.35 2.64c.8 1.32.8 2.96 0 4.92a90.63 90.63 0 0 0-1.73 6 125.8 125.8 0 0 0-1.68 7.5c-.5 2.65-.9 5.3-1.21 7.98-.3 2.67-.4 5.13-.3 7.36a19 19 0 0 0 .96 5.58c.54 1.5 1.42 2.4 2.64 2.75 2.64.13 5.09-.4 7.36-1.58a23.1 23.1 0 0 0 6.3-4.92c1.92-2.1 3.7-4.5 5.33-7.21a85.7 85.7 0 0 0 4.41-8.38c1.32-2.88 2.5-5.7 3.56-8.48a609.6 609.6 0 0 0 2.79-7.51 8.13 8.13 0 0 1 3.4-3.5 5.6 5.6 0 0 1 3.86-.51 5.6 5.6 0 0 1 3.2 2.23 7.57 7.57 0 0 1 1.32 4.62 72.24 72.24 0 0 0-2.8 10.97 96 96 0 0 0-1.26 11.07c-.14 2.57-.2 5.1-.16 7.61.04 2.5.19 4.84.46 7a47.95 47.95 0 0 0 7.26-5.08 43.1 43.1 0 0 0 4.22-4.05 23.88 23.88 0 0 0 3.35-4.67c1.35-1.63 2.69-2.37 4-2.24 1.33.14 2.44.72 3.36 1.73zM321 55.06a14.4 14.4 0 0 0-.1 3.76c3.1-.61 5.58-1.9 7.4-3.86a16.64 16.64 0 0 0 3.81-6.3c.71-2.23.95-4.33.71-6.3-.23-1.95-.86-3.24-1.87-3.85-.95-.61-1.88-.66-2.8-.15a7.98 7.98 0 0 0-2.59 2.54 19.57 19.57 0 0 0-2.13 4.2 41 41 0 0 0-1.52 5.04c-.4 1.72-.71 3.37-.92 4.92zm35.18 4.16c1.12.34 2.06.94 2.84 1.78.78.85 1.03 1.81.76 2.9a137.81 137.81 0 0 1-4.41 10.45 47.21 47.21 0 0 1-4.83 8.08 29.1 29.1 0 0 1-5.94 5.94 30.63 30.63 0 0 1-7.76 4.06c-4 1.42-7.69 2.05-11.07 1.88a17.53 17.53 0 0 1-8.84-2.7 16.78 16.78 0 0 1-5.94-6.9c-.18-.37-.33-.8-.5-1.19l-.31.43a25.7 25.7 0 0 1-7.67 6.5 20.73 20.73 0 0 1-10.25 2.49c-2.58 0-4.69-.7-6.35-2.09a14.78 14.78 0 0 1-3.9-5.07c-.96-2-1.6-4.12-1.94-6.35-.34-2.23-.5-4.2-.5-5.89 0-2.44.15-4.77.45-7a127 127 0 0 1 1.07-6.56c.4-2.13.76-4.2 1.06-6.19.3-2 .46-3.94.46-5.84 0-2.57-.29-4.6-.86-6.09-.58-1.49-1.4-2.23-2.49-2.23-2.1 0-4.08 1.23-5.94 3.7a40.26 40.26 0 0 0-5.08 9.55c-1.52 3.9-2.88 8.3-4.06 13.2-1.19 4.9-2.12 9.8-2.8 14.67-.2 1.7-.94 2.9-2.23 3.6a6.7 6.7 0 0 1-4.1.82 7.86 7.86 0 0 1-3.97-1.63 4.44 4.44 0 0 1-1.77-3.7c.13-.88.35-2.5.65-4.83.3-2.33.58-4.99.82-7.97.23-2.98.37-6.07.4-9.29.04-3.21-.17-6.17-.6-8.88a18.58 18.58 0 0 0-2.24-6.65 4.92 4.92 0 0 0-4.42-2.6c-1.56 0-3.04.73-4.47 2.19a26.21 26.21 0 0 0-4.1 5.84 54.68 54.68 0 0 0-3.61 8.43 113.02 113.02 0 0 0-2.9 10.05c-.84 3.52-1.55 7.07-2.13 10.66-.57 3.59-.96 6.97-1.17 10.16-.2 1.69-1 2.87-2.38 3.55a8.28 8.28 0 0 1-4.42.81 8.2 8.2 0 0 1-4.16-1.52 3.6 3.6 0 0 1-1.63-3.46c.95-6.15 1.64-11.57 2.08-16.24.44-4.67.7-8.75.76-12.24.07-3.48.02-6.43-.15-8.83a72.6 72.6 0 0 0-.66-6.15 35.72 35.72 0 0 0-.86-4.1c-.3-1.06-.5-1.95-.56-2.7a5.36 5.36 0 0 1 .26-2.69c.3-.78.74-1.44 1.31-1.98a6.37 6.37 0 0 1 4.22-1.72c1.49 0 2.64.23 3.45.7a4.7 4.7 0 0 1 1.88 2.09 11 11 0 0 1 .91 3.35c.17 1.32.32 2.86.46 4.62.88-1.49 1.9-3 3.05-4.52a26.3 26.3 0 0 1 3.86-4.11c1.42-1.22 3-2.22 4.72-3 1.72-.77 3.6-1.16 5.63-1.16 2.1 0 4.1.39 6 1.16 1.89.78 3.6 1.87 5.12 3.25a19.48 19.48 0 0 1 3.86 4.88 24.22 24.22 0 0 1 2.39 6.04 75.08 75.08 0 0 1 4.92-8.13 17.85 17.85 0 0 1 7.26-5.99c3.05-1.42 5.9-1.83 8.53-1.21 2.64.6 4.96 1.84 6.96 3.7s3.57 4.2 4.72 7a22.95 22.95 0 0 1 1.73 8.8c0 3.51-.23 7.2-.66 11.06-.44 3.86-.83 7.45-1.17 10.76-.34 3.32-.46 6.1-.36 8.33.1 2.23.7 3.49 1.78 3.76 1.83.47 3.59-.07 5.28-1.63a26.1 26.1 0 0 0 4.62-5.79c1.39-2.3 2.6-4.65 3.66-7.06l.44-1c.05-2.6.22-5.3.52-8.13.34-3.15.88-6.35 1.63-9.6a46.94 46.94 0 0 1 3.04-9.09c1.29-2.8 2.9-5.28 4.82-7.4a16.56 16.56 0 0 1 7.06-4.63c2.3-.81 4.57-1.12 6.8-.91 2.24.2 4.22.91 5.94 2.13a12.5 12.5 0 0 1 4.12 5.13c1.01 2.2 1.49 4.89 1.42 8.07a38.84 38.84 0 0 1-1.83 10.2 29.97 29.97 0 0 1-4.77 9.24 24.34 24.34 0 0 1-7.67 6.6 18.23 18.23 0 0 1-10.3 2.09c.06 2.1.3 4.13.7 6.09.41 1.96 1.07 3.64 1.99 5.03a7.39 7.39 0 0 0 3.7 2.94c1.56.58 3.52.5 5.9-.25 2.36-.68 4.63-1.8 6.8-3.36a32.62 32.62 0 0 0 5.84-5.38 35 35 0 0 0 4.36-6.44 30.46 30.46 0 0 0 2.6-6.65c.26-1.16.9-1.87 1.92-2.14a5.77 5.77 0 0 1 3.2.1zM411.37 47.9c.34-2 .57-3.43.7-4.31-2.16-1.83-4.19-2.78-6.08-2.85a8.37 8.37 0 0 0-5.23 1.58c-1.6 1.11-3 2.69-4.22 4.72a36.4 36.4 0 0 0-3.1 6.65 42.8 42.8 0 0 0-2.43 14.27c.03 2.1.34 3.82.91 5.18.58 1.35 1.4 2.1 2.49 2.23 2.17.2 4.08-.3 5.74-1.52a17.43 17.43 0 0 0 4.41-4.93 33.76 33.76 0 0 0 3.25-6.95c.88-2.58 1.61-5.06 2.19-7.47.57-2.4 1.03-4.6 1.37-6.6zm36.1 7.77a6.2 6.2 0 0 1 2.53 2.49c.65 1.12.73 2.18.26 3.2-.48 2.7-1.42 5.8-2.84 9.29a50.8 50.8 0 0 1-5.44 9.95 36.68 36.68 0 0 1-7.46 7.97 14.26 14.26 0 0 1-8.94 3.25 14.61 14.61 0 0 1-8.78-3.15 16.43 16.43 0 0 1-3.7-4.16 17.6 17.6 0 0 1-2.34-6.2c-.61.75-1.46 1.68-2.54 2.8a27.51 27.51 0 0 1-8.43 5.84c-1.69.74-3.45 1.11-5.28 1.11-4.13 0-7.4-1.15-9.8-3.45a18.43 18.43 0 0 1-5.02-8.89 35.46 35.46 0 0 1-.87-12.03c.37-4.4 1.3-8.71 2.8-12.94a51.97 51.97 0 0 1 5.83-11.73 26.9 26.9 0 0 1 8.28-8.23 16.8 16.8 0 0 1 10.2-2.43c3.7.27 7.53 2.13 11.53 5.58.4-1.22 1.29-1.95 2.64-2.18a7.44 7.44 0 0 1 7.31 2.94c.88 1.19 1.05 2.63.51 4.32-.48 1.9-1.08 4.21-1.83 6.95-.74 2.74-1.47 5.6-2.18 8.58-.71 2.98-1.32 5.98-1.83 9-.5 3-.75 5.71-.71 8.11.03 2.4.39 4.4 1.07 6a3.96 3.96 0 0 0 3.55 2.58 7.85 7.85 0 0 0 5.74-2.08 23.07 23.07 0 0 0 4.77-5.74 42.77 42.77 0 0 0 3.5-7.3c.95-2.58 1.56-4.81 1.83-6.7.47-1.77 1.27-2.8 2.39-3.1 1.11-.3 2.2-.2 3.25.35zM630.24 111.72c.58-2.3.8-4.82.66-7.56-.13-2.74-.6-5.3-1.42-7.67a17.92 17.92 0 0 0-3.5-6.14 8.76 8.76 0 0 0-5.74-3l-.56 4.88a153.88 153.88 0 0 0-.91 14.21c-.03 2.5.07 4.77.3 6.8.24 2.04.66 3.7 1.27 4.98.61 1.29 1.5 1.9 2.64 1.83a5.84 5.84 0 0 0 4.57-2.5 15.73 15.73 0 0 0 2.7-5.83zm-36.75 0c.57-2.3.79-4.82.66-7.56-.14-2.74-.61-5.3-1.43-7.67a17.97 17.97 0 0 0-3.5-6.14 8.76 8.76 0 0 0-5.74-3l-.55 4.88a155.42 155.42 0 0 0-.92 14.21c-.03 2.5.07 4.77.3 6.8.24 2.04.67 3.7 1.28 4.98.6 1.29 1.49 1.9 2.64 1.83a5.84 5.84 0 0 0 4.56-2.5 15.72 15.72 0 0 0 2.7-5.83zm-37.73-57.67c.07-1.63.04-3.32-.1-5.08a28.61 28.61 0 0 0-.7-4.67 8.63 8.63 0 0 0-1.33-3.1c-.54-.71-1.19-.86-1.93-.46a6.27 6.27 0 0 0-3.2 4.83c-.24 2.06-.05 4.16.56 6.3a21.65 21.65 0 0 0 2.54 5.73c1.08 1.7 2 2.74 2.74 3.15.4-.34.73-1.13.96-2.39.24-1.25.4-2.69.46-4.31zm-8.98 20.25a13.35 13.35 0 0 0 2.38-3.4 18.52 18.52 0 0 1-4.82-4.16 27.33 27.33 0 0 1-3.4-5.38 30.03 30.03 0 0 1-2.64-10.41c-.27-3.69 0-7.26.8-10.72a11.7 11.7 0 0 0-5.98 3.61 26.89 26.89 0 0 0-4.67 6.9 32.82 32.82 0 0 0-2.74 8.69c-.55 3.11-.6 6.04-.16 8.78a15.04 15.04 0 0 0 3.1 7.16c1.62 2.03 3.96 3.35 7 3.96 1.09.2 2.3.1 3.66-.3 1.36-.41 2.68-1.02 3.96-1.83a18.06 18.06 0 0 0 3.5-2.9zm112.35-19.24c-.2 1.56-.23 2.81-.1 3.76 3.12-.61 5.59-1.9 7.42-3.86a16.64 16.64 0 0 0 3.8-6.3c.71-2.23.95-4.33.71-6.3-.23-1.95-.86-3.24-1.88-3.85-.94-.61-1.87-.66-2.79-.15a7.97 7.97 0 0 0-2.59 2.54 19.6 19.6 0 0 0-2.13 4.21c-.6 1.62-1.12 3.3-1.52 5.02-.4 1.73-.71 3.38-.92 4.93zm40.93 0a14.5 14.5 0 0 0-.1 3.76c3.1-.61 5.58-1.9 7.4-3.86a16.66 16.66 0 0 0 3.81-6.3c.72-2.23.95-4.33.72-6.3-.24-1.95-.87-3.24-1.88-3.85-.95-.61-1.88-.66-2.8-.15a7.97 7.97 0 0 0-2.59 2.54 19.51 19.51 0 0 0-2.13 4.21c-.6 1.62-1.11 3.3-1.52 5.02-.4 1.73-.71 3.38-.91 4.93zM738.09 61c.77.85 1.03 1.81.76 2.9-1.5 3.92-2.97 7.4-4.42 10.45a47.4 47.4 0 0 1-4.82 8.08 29.2 29.2 0 0 1-5.94 5.94 30.55 30.55 0 0 1-7.77 4.06c-4 1.42-7.69 2.04-11.07 1.88a17.54 17.54 0 0 1-8.84-2.7 16.77 16.77 0 0 1-5.94-6.9c-.4-.84-.76-1.75-1.07-2.7l-.3.42a29.17 29.17 0 0 1-5.94 5.94 30.56 30.56 0 0 1-7.76 4.06c-4 1.42-7.69 2.04-11.07 1.88a17.55 17.55 0 0 1-8.84-2.7 16.78 16.78 0 0 1-5.94-6.9 25.85 25.85 0 0 1-2.3-8.65 84.5 84.5 0 0 1-8.01 5.1c-1.69.95-3.14 1.59-4.36 1.93a23.6 23.6 0 0 1 4.77 8.53 44.53 44.53 0 0 1 2.13 11.01c.27 3.9.09 7.77-.56 11.63a33.54 33.54 0 0 1-3.3 10.2 18.84 18.84 0 0 1-6.09 6.96c-2.5 1.7-5.48 2.3-8.93 1.83a12.64 12.64 0 0 1-7.87-3.76c-2-2.1-3.54-4.65-4.62-7.66a40.7 40.7 0 0 1-2.14-10.06c-.33-3.69-.47-7.34-.4-10.96.07-3.63.22-7.08.45-10.36.24-3.28.4-6.04.46-8.28 0-1 .09-2.7.25-5.1l-1.31.89a84.5 84.5 0 0 1-5.23 3.2 20.4 20.4 0 0 1-4.37 1.93 23.6 23.6 0 0 1 4.77 8.53 44.48 44.48 0 0 1 2.13 11.01c.27 3.9.09 7.77-.55 11.63a33.57 33.57 0 0 1-3.3 10.2 18.85 18.85 0 0 1-6.1 6.96c-2.5 1.7-5.48 2.3-8.93 1.83a12.64 12.64 0 0 1-7.87-3.76 21.5 21.5 0 0 1-4.62-7.66 40.62 40.62 0 0 1-2.13-10.06c-.34-3.69-.48-7.34-.41-10.96.07-3.63.22-7.08.46-10.36.24-3.28.39-6.04.45-8.28 0-1.28.14-3.72.41-7.3l.1-1.24a36.15 36.15 0 0 1-11.68 1.94c-2.64 4.67-6.02 8.21-10.15 10.61a27.15 27.15 0 0 1-13.5 3.71c-4.54.07-8.37-.85-11.48-2.74a21.55 21.55 0 0 1-7.41-7.41 25.86 25.86 0 0 1-1.78-3.66 45.05 45.05 0 0 1-10.71 8.13 57.43 57.43 0 0 1-7.31 3.35c-1.83.67-3.76 1.2-5.8 1.57-2.02.37-4.07.45-6.14.25-2.06-.2-4.04-.72-5.94-1.57a13.83 13.83 0 0 1-5.07-4.01 22.5 22.5 0 0 1-4.12-7.82 44.3 44.3 0 0 1-1.88-9.95c-.26-3.52-.18-7.14.26-10.87a58.13 58.13 0 0 1 2.24-10.6c1.04-3.36 2.4-6.4 4.06-9.15a21.47 21.47 0 0 1 5.73-6.45c3.52-2.37 6.96-3.46 10.31-3.3 3.35.17 6 1.68 7.97 4.52 1.56.2 2.81.98 3.76 2.34a5.6 5.6 0 0 1 .81 4.67l-1.42 12.9c-.14 0-.24-.04-.3-.1a7.95 7.95 0 0 1-2.9 3.55 5.26 5.26 0 0 1-3.6.86 5.6 5.6 0 0 1-3.3-1.78 8.1 8.1 0 0 1-1.99-4.26c0-.88.1-1.98.31-3.3.2-1.32.36-2.6.46-3.86.1-1.25.05-2.34-.16-3.25-.2-.91-.74-1.44-1.62-1.57a11.04 11.04 0 0 0-4.06 4.41 32.83 32.83 0 0 0-2.84 7.01 48.34 48.34 0 0 0-1.58 8.28c-.3 2.9-.4 5.7-.3 8.37.1 2.68.44 5.06 1.01 7.16.58 2.1 1.4 3.63 2.49 4.57a8.42 8.42 0 0 0 4.47 2.34c1.62.27 3.31.23 5.07-.1a27.6 27.6 0 0 0 5.08-1.53c1.9-.74 3.8-1.82 5.74-3.25a30.28 30.28 0 0 0 9.04-11.08c.04-1.66.16-3.33.4-5.01a42.14 42.14 0 0 1 3.46-11.58 34.61 34.61 0 0 1 6.64-9.8c2.71-2.77 5.91-4.89 9.6-6.34 3.7-1.46 7.84-1.88 12.44-1.27 3.11-1.02 5.84-1.22 8.17-.61 2.34.6 4.29 1.8 5.84 3.55a19.55 19.55 0 0 1 3.71 6.55 38.41 38.41 0 0 1 2.13 12.75c.04 1.62 0 3.25-.1 4.87-.1 1.63-.24 3.18-.4 4.67a39.4 39.4 0 0 1-.67 4.06c1.63-.06 3.08-.28 4.37-.66a24.3 24.3 0 0 0 3.48-1.29l.02-.28c.38-4.88.82-10.12 1.32-15.74.51-5.62 1.02-11.07 1.53-16.35.5-5.28 1.01-10.15 1.52-14.62.5-4.47 1-7.99 1.47-10.56.95-1.7 2.15-2.78 3.6-3.25a6.6 6.6 0 0 1 4.12-.1 6.17 6.17 0 0 1 3.15 2.23 4.07 4.07 0 0 1 .6 3.76L584 74.96c2.91-.2 5.75-.8 8.53-1.77a45.49 45.49 0 0 0 8.02-3.76 61.04 61.04 0 0 0 7.37-5.13l1.78-1.5.04-.63c.37-4.88.82-10.12 1.32-15.74.51-5.62 1.02-11.07 1.53-16.35a833.5 833.5 0 0 1 1.52-14.62c.5-4.47 1-7.99 1.47-10.56.95-1.7 2.15-2.78 3.6-3.25a6.6 6.6 0 0 1 4.12-.1 6.17 6.17 0 0 1 3.15 2.23 4.08 4.08 0 0 1 .6 3.76l-6.29 67.42c2.91-.2 5.75-.8 8.53-1.77a45.51 45.51 0 0 0 8.02-3.76 60.94 60.94 0 0 0 7.36-5.13c.68-.55 1.32-1.11 1.98-1.67a81.79 81.79 0 0 1 2.04-14.78 46.96 46.96 0 0 1 3.04-9.09c1.29-2.8 2.9-5.28 4.82-7.41a16.59 16.59 0 0 1 7.06-4.62c2.3-.81 4.57-1.12 6.8-.91 2.24.2 4.22.9 5.95 2.13a12.54 12.54 0 0 1 4.1 5.13c1.02 2.2 1.5 4.89 1.43 8.07a38.85 38.85 0 0 1-1.83 10.2 29.93 29.93 0 0 1-4.77 9.24 24.36 24.36 0 0 1-7.67 6.6 18.24 18.24 0 0 1-10.3 2.09c.06 2.1.3 4.13.7 6.09.41 1.96 1.07 3.64 1.99 5.03a7.4 7.4 0 0 0 3.7 2.94c1.56.58 3.52.5 5.9-.25 2.36-.68 4.63-1.8 6.8-3.35a32.55 32.55 0 0 0 5.83-5.39 34.78 34.78 0 0 0 5.2-8.13c.04-2.8.21-5.72.54-8.77.34-3.15.88-6.35 1.63-9.6a46.9 46.9 0 0 1 3.04-9.09 28.9 28.9 0 0 1 4.83-7.41 16.58 16.58 0 0 1 7.05-4.62c2.3-.81 4.58-1.12 6.8-.91 2.24.2 4.22.9 5.95 2.13a12.53 12.53 0 0 1 4.11 5.13c1.01 2.2 1.49 4.89 1.42 8.07a38.93 38.93 0 0 1-1.82 10.2 29.98 29.98 0 0 1-4.78 9.24 24.38 24.38 0 0 1-7.67 6.6 18.24 18.24 0 0 1-10.3 2.09c.06 2.1.3 4.13.7 6.09.42 1.96 1.08 3.64 1.99 5.03a7.4 7.4 0 0 0 3.7 2.94c1.56.58 3.52.5 5.9-.25 2.37-.68 4.63-1.8 6.8-3.35a32.63 32.63 0 0 0 5.84-5.39 34.77 34.77 0 0 0 4.36-6.44 30.3 30.3 0 0 0 2.6-6.65c.26-1.16.9-1.87 1.92-2.14a6.27 6.27 0 0 1 6.04 1.88z" transform="translate(211 46)"/>
    </g>
  </g>
</svg>
