<?xml version="1.0" encoding="UTF-8" standalone="no"?><!DOCTYPE svg PUBLIC "-//W3C//DTD SVG 1.1//EN" "http://www.w3.org/Graphics/SVG/1.1/DTD/svg11.dtd"><svg width="100%" height="100%" viewBox="0 0 512 512" version="1.1" xmlns="http://www.w3.org/2000/svg" xmlns:xlink="http://www.w3.org/1999/xlink" xml:space="preserve" xmlns:serif="http://www.serif.com/" style="fill-rule:evenodd;clip-rule:evenodd;stroke-linejoin:round;stroke-miterlimit:1.41421;"><rect id="App-Icon---Flat-for-SVG" serif:id="App Icon - Flat for SVG" x="0" y="0" width="512" height="512" style="fill:none;"/><path d="M512,256c-0.136,141.427 -114.794,256 -256,256c-141.29,0 -256,-114.71 -256,-256c0,-141.29 114.71,-256 256,-256c141.206,0 255.864,114.573 256,256l0,0Z" style="fill:url(#_Linear1);"/><g id="Icon"><g><path id="Background" d="M264.357,228.929c16.622,-39.079 35.43,-77.828 58.643,-115.929c8.76,32.11 21.919,61.666 41,88l-13,55c14.882,-35.486 30.217,-69.747 47,-102c31.527,109.487 57.218,156.788 81,183l-72,0c-1.723,5.31 -1.67,10.63 0,16l-40,0c1.809,-5.949 1.563,-11.188 0,-16l-63.666,0c24.461,-51.074 -56.916,-43.188 -38.977,-108.071Zm-127.357,124.071l-40,0c1.781,-5.225 1.826,-10.561 0,-16l-64,0c32.593,-47.409 62.501,-103.918 81,-177c18.272,24.803 36.275,53.029 54,83l-14,-42c16.804,-32.205 30.753,-63.618 41,-95c11.265,41.342 26.618,79.184 44.906,114.163c-54.971,34.589 19.896,73.609 -50.028,116.837l-52.878,0c-1.692,4.923 -1.749,10.186 0,16Z" style="fill:url(#_Linear2);"/><path id="Foreground" d="M189.795,337l-121.359,0c27.501,-46.618 40.432,-110.866 45.564,-177c18.272,24.803 36.275,53.029 54,83l-14,-42c16.787,-32.17 30.724,-63.552 41,-95c6.024,50.841 4.439,93.89 26.261,133.413c-13.92,29.654 25.897,62.239 -31.466,97.587Zm74.559,-108.032c16.593,-39.048 35.397,-77.793 58.646,-115.968c2.806,16.664 15.008,83.963 34.175,116.877l-6.175,26.123l9.828,-23.013c11.796,-27.286 24.04,-53.751 37.172,-78.987c14.435,90.507 25.897,148.693 45.73,183l-140.441,0c24.556,-51.075 -56.848,-43.169 -38.935,-108.032Z" style="fill:url(#_Linear3);"/></g></g><g id="Text"><g><g><g><path d="M85.393,365.772c-0.37,-0.502 -0.84,-0.573 -1.342,-0.203l-5.486,4.046c-0.502,0.37 -0.573,0.84 -0.202,1.342l4.758,6.451l-19.816,14.617c-0.503,0.371 -0.574,0.84 -0.203,1.343l4.416,5.987c0.371,0.502 0.84,0.573 1.343,0.203l19.816,-14.617l4.758,6.451c0.371,0.502 0.841,0.573 1.343,0.203l5.485,-4.046c0.502,-0.371 0.573,-0.841 0.203,-1.343l-15.073,-20.434Z" style="fill:#c4efd3;fill-rule:nonzero;"/><path d="M97.568,432.396c0.543,0.543 1.052,0.373 1.255,-0.374l3.021,-12.524c4.107,1.459 8.044,0.509 11.404,-2.851c5.159,-5.159 5.261,-11.846 -0.644,-17.751l-8.622,-8.621c-0.441,-0.442 -0.916,-0.442 -1.357,0l-22.91,22.91c-0.442,0.441 -0.442,0.916 0,1.358l5.26,5.26c0.442,0.442 0.917,0.442 1.358,0l6.822,-6.822l1.46,1.46l-3.36,10.691c-0.17,0.509 -0.068,0.883 0.305,1.256l6.008,6.008Zm8.587,-27.73c1.934,1.934 1.9,3.53 0.237,5.193c-1.765,1.765 -3.292,1.731 -5.227,-0.204l-2.342,-2.342l4.99,-4.989l2.342,2.342Z" style="fill:#c4efd3;fill-rule:nonzero;"/><path d="M109.707,442.325c0.425,0.313 0.915,0.376 1.372,-0.003l3.871,-2.992l8.389,6.173l-1.744,4.557c-0.225,0.549 -0.02,0.999 0.406,1.312l6.379,4.694c0.541,0.398 1.068,0.249 1.273,-0.434l10.494,-32.564c0.158,-0.539 0.03,-0.932 -0.395,-1.245l-7.114,-5.234c-0.425,-0.313 -0.838,-0.319 -1.306,-0.008l-27.969,19.705c-0.591,0.399 -0.577,0.946 -0.035,1.345l6.379,4.694Zm20.379,-14.98l0.155,0.114l-4.025,10.328l-4.755,-3.499l8.625,-6.943Z" style="fill:#c4efd3;fill-rule:nonzero;"/><path d="M160.753,435.849c0.306,-0.544 0.177,-1.001 -0.367,-1.307l-6.488,-3.641c-0.544,-0.306 -1.001,-0.177 -1.307,0.367l-15.858,28.254c-0.306,0.544 -0.177,1.001 0.367,1.307l6.488,3.641c0.544,0.306 1.001,0.177 1.307,-0.367l15.858,-28.254Z" style="fill:#c4efd3;fill-rule:nonzero;"/><path d="M174.189,478.511c0.576,0.241 1.015,0.06 1.256,-0.515l2.633,-6.287c0.241,-0.576 0.061,-1.015 -0.515,-1.256l-11.245,-4.71l9.511,-22.713c0.241,-0.575 0.061,-1.015 -0.515,-1.256l-6.862,-2.874c-0.576,-0.241 -1.016,-0.061 -1.257,0.515l-12.514,29.885c-0.241,0.576 -0.061,1.016 0.514,1.257l18.994,7.954Z" style="fill:#c4efd3;fill-rule:nonzero;"/><path d="M207.956,487.921c7.244,1.472 14.383,0.327 16.658,-10.868l1.272,-6.256c2.237,-11.007 -3.851,-15.036 -11.095,-16.508l-11.524,-2.342c-0.612,-0.125 -1.008,0.138 -1.132,0.749l-6.453,31.751c-0.124,0.612 0.138,1.008 0.75,1.132l11.524,2.342Zm1.793,-25.693l3.481,0.707c2.822,0.574 4.003,2.234 3.372,5.339l-1.51,7.432c-0.65,3.198 -2.376,4.219 -5.198,3.645l-3.481,-0.707l3.336,-16.416Z" style="fill:#c4efd3;fill-rule:nonzero;"/><path d="M244.022,459.153c0.05,-0.622 -0.257,-0.984 -0.879,-1.035l-7.416,-0.6c-0.622,-0.051 -0.984,0.257 -1.034,0.879l-2.615,32.294c-0.05,0.622 0.257,0.984 0.879,1.035l7.416,0.6c0.622,0.051 0.984,-0.257 1.034,-0.879l2.615,-32.294Z" style="fill:#c4efd3;fill-rule:nonzero;"/><path d="M278.303,481.628c-0.248,-6.716 -4.9,-9.138 -12.5,-10.731c-4.066,-0.859 -5.137,-1.251 -5.187,-2.595c-0.034,-0.911 0.803,-1.662 3.633,-1.767c2.495,-0.092 5.207,0.529 7.511,1.789c0.54,0.316 1.015,0.155 1.333,-0.338l3.579,-5.847c0.316,-0.54 0.202,-1.017 -0.338,-1.333c-4.174,-2.488 -7.759,-3.316 -12.076,-3.157c-7.579,0.279 -13.446,4.002 -13.198,10.718c0.304,8.25 7.98,10.609 12.715,11.347c2.657,0.43 4.842,1.07 4.897,2.557c0.041,1.103 -0.984,1.958 -3.766,2.06c-3.07,0.113 -6.044,-1.074 -8.75,-2.799c-0.493,-0.366 -1.017,-0.251 -1.336,0.241l-3.77,5.855c-0.318,0.492 -0.253,0.97 0.241,1.336c4.395,3.248 8.141,4.551 13.178,4.365c9.593,-0.353 14.066,-5.418 13.834,-11.701Z" style="fill:#c4efd3;fill-rule:nonzero;"/><path d="M311.744,483.739c0.286,-0.297 0.16,-0.713 -0.259,-1.123l-4.729,-4.927c-0.428,-0.457 -0.861,-0.425 -1.319,0.002c-1.419,1.291 -3.333,2.284 -5.456,2.68c-3.208,0.6 -5.46,-0.737 -6.043,-3.851l-1.508,-8.068c-0.503,-2.689 1.005,-5.071 4.45,-5.715c1.793,-0.335 3.721,-0.207 5.295,0.377c0.628,0.225 1.035,0.051 1.269,-0.53l2.583,-6.294c0.242,-0.533 0.107,-0.996 -0.474,-1.229c-2.922,-1.261 -6.719,-1.723 -10.635,-0.991c-9.106,1.702 -13.482,7.55 -11.974,15.618l1.711,9.154c1.517,8.115 7.427,12.04 16.816,10.285c4.86,-0.909 8.108,-3.127 10.273,-5.388Z" style="fill:#c4efd3;fill-rule:nonzero;"/><path d="M342.082,462.813l-2.538,-7.4c-2.834,-8.264 -9.54,-11.393 -18.122,-8.45c-8.581,2.943 -11.954,9.53 -9.12,17.794l2.538,7.4c2.85,8.309 9.572,11.484 18.153,8.541c8.582,-2.944 11.939,-9.576 9.089,-17.885Zm-18.239,6.003l-2.382,-6.947c-1.122,-3.269 -0.2,-5.463 2.842,-6.506c3.042,-1.044 5.117,0.122 6.238,3.391l2.383,6.947c1.137,3.314 0.23,5.554 -2.812,6.597c-3.042,1.043 -5.132,-0.168 -6.269,-3.482Z" style="fill:#c4efd3;fill-rule:nonzero;"/><path d="M370.886,463.128c0.466,-0.248 0.65,-0.617 0.571,-1.174l-5.615,-33.764c-0.104,-0.706 -0.603,-0.93 -1.196,-0.615l-7.078,3.764c-0.466,0.248 -0.67,0.683 -0.549,1.216l2.633,13.334c0.64,3.247 1.708,7.3 2.416,9.859l-0.254,0.136c-1.726,-2.018 -4.489,-5.17 -6.824,-7.516l-9.583,-9.637c-0.375,-0.399 -0.849,-0.473 -1.316,-0.225l-7.077,3.764c-0.593,0.316 -0.687,0.855 -0.16,1.335l24.856,23.533c0.417,0.376 0.827,0.43 1.293,0.182l7.883,-4.192Z" style="fill:#c4efd3;fill-rule:nonzero;"/><path d="M387.703,436.628l8.458,-6.322c0.5,-0.374 0.568,-0.844 0.194,-1.344l-3.765,-5.036c-0.373,-0.5 -0.844,-0.568 -1.343,-0.194l-8.459,6.322l-2.672,-3.576l9.957,-7.443c0.5,-0.373 0.568,-0.844 0.195,-1.343l-3.88,-5.191c-0.374,-0.5 -0.844,-0.568 -1.344,-0.194l-16.685,12.472c-0.5,0.374 -0.568,0.844 -0.195,1.344l19.398,25.951c0.374,0.5 0.844,0.568 1.344,0.195l17.339,-12.961c0.5,-0.374 0.568,-0.844 0.195,-1.344l-3.88,-5.19c-0.374,-0.5 -0.844,-0.568 -1.344,-0.194l-10.611,7.931l-2.902,-3.883Z" style="fill:#c4efd3;fill-rule:nonzero;"/><path d="M433.048,413.704c0.541,-0.546 0.369,-1.054 -0.378,-1.255l-12.537,-2.969c1.443,-4.113 0.476,-8.046 -2.898,-11.393c-5.18,-5.137 -11.867,-5.212 -17.748,0.718l-8.586,8.656c-0.439,0.443 -0.437,0.918 0.006,1.358l23.004,22.816c0.443,0.44 0.918,0.438 1.357,-0.005l5.24,-5.283c0.439,-0.443 0.437,-0.918 -0.006,-1.357l-6.85,-6.795l1.453,-1.465l10.706,3.316c0.509,0.168 0.882,0.065 1.254,-0.31l5.983,-6.032Zm-27.765,-8.474c1.927,-1.942 3.522,-1.915 5.192,-0.259c1.772,1.758 1.745,3.285 -0.182,5.228l-2.332,2.351l-5.01,-4.968l2.332,-2.352Z" style="fill:#c4efd3;fill-rule:nonzero;"/><path d="M448.342,394.144c0.373,-0.501 0.304,-0.971 -0.197,-1.343l-8.742,-6.504l-10.939,-21.001c-0.338,-0.671 -0.924,-0.688 -1.354,-0.11l-4.899,6.585c-0.315,0.424 -0.314,0.904 -0.043,1.344l7.11,11.512l-13.07,-3.501c-0.499,-0.133 -0.96,0.003 -1.275,0.427l-4.899,6.585c-0.43,0.578 -0.245,1.134 0.494,1.266l23.259,4.441l8.742,6.504c0.501,0.372 0.971,0.303 1.344,-0.197l4.469,-6.008Z" style="fill:#c4efd3;fill-rule:nonzero;"/></g></g><g><g><path d="M56.862,217.838c0.146,-0.607 -0.102,-1.012 -0.709,-1.159l-3.406,-0.82c-4.153,-1.001 -10.078,-2.231 -15.29,-3.142l0.01,-0.244c2.082,-0.239 7.639,-1.171 11.056,-1.829l1.918,-0.377c0.569,-0.11 0.835,-0.392 0.958,-0.905l1.26,-5.226c0.123,-0.514 0.015,-0.885 -0.442,-1.242l-1.535,-1.21c-2.743,-2.142 -7.265,-5.503 -9.01,-6.664l0.103,-0.222c5.055,1.564 10.889,3.167 15.042,4.168l3.407,0.821c0.607,0.146 1.012,-0.102 1.158,-0.708l1.709,-7.093c0.147,-0.607 -0.101,-1.012 -0.708,-1.159l-31.498,-7.59c-0.607,-0.146 -1.012,0.102 -1.159,0.708l-1.922,7.98c-0.124,0.513 0.03,0.896 0.441,1.242l5.3,4.437c2.755,2.293 7.078,5.458 8.894,6.735l-0.045,0.187c-2.198,0.309 -7.488,1.158 -10.986,1.944l-6.739,1.536c-0.523,0.121 -0.835,0.392 -0.959,0.905l-1.922,7.979c-0.147,0.607 0.101,1.012 0.708,1.159l31.498,7.59c0.607,0.146 1.012,-0.102 1.158,-0.708l1.71,-7.093Z" style="fill:#c5dcf1;fill-rule:nonzero;"/><path d="M65.728,153.155l-7.112,-3.26c-7.941,-3.64 -14.83,-0.937 -18.611,7.31c-3.78,8.246 -1.332,15.23 6.61,18.87l7.112,3.261c7.985,3.66 14.918,0.977 18.698,-7.27c3.78,-8.246 1.288,-15.25 -6.697,-18.911Zm-8.219,17.354l-6.676,-3.06c-3.141,-1.441 -4.096,-3.621 -2.756,-6.544c1.341,-2.924 3.615,-3.623 6.757,-2.183l6.676,3.06c3.185,1.46 4.183,3.66 2.843,6.584c-1.34,2.923 -3.659,3.603 -6.844,2.143Z" style="fill:#c5dcf1;fill-rule:nonzero;"/><path d="M85.537,123.255l-16.683,-11.403c-0.515,-0.352 -0.982,-0.264 -1.334,0.251l-4.253,6.222c-0.352,0.515 -0.264,0.982 0.251,1.334l16.842,11.511c2.576,1.761 3.084,3.91 1.567,6.129c-1.571,2.299 -3.704,2.527 -6.28,0.767l-16.842,-11.512c-0.515,-0.352 -0.982,-0.264 -1.334,0.251l-4.252,6.222c-0.353,0.515 -0.265,0.982 0.25,1.334l16.684,11.403c7.45,5.092 14.067,3.917 19.105,-3.454c5.011,-7.331 3.729,-13.963 -3.721,-19.055Z" style="fill:#c5dcf1;fill-rule:nonzero;"/><path d="M106.83,118.994c0.435,-0.448 0.428,-0.923 -0.019,-1.358l-3.306,-3.211c-3.098,-3.01 -7.083,-6.278 -10.858,-9.075l0.099,-0.171c2.564,1.219 8.639,3.507 13.238,4.628l7.187,1.695c0.477,0.129 0.917,0.02 1.285,-0.358l5.351,-5.509c0.435,-0.448 0.428,-0.923 -0.02,-1.358l-23.24,-22.575c-0.448,-0.435 -0.923,-0.428 -1.358,0.02l-5.117,5.267c-0.434,0.448 -0.428,0.923 0.02,1.358l4.235,4.114c2.823,2.742 5.987,5.548 9.524,8.382l-0.099,0.171c-2.119,-0.988 -7.134,-2.714 -12.111,-4.203l-7.909,-2.33c-0.512,-0.162 -0.884,-0.055 -1.252,0.324l-5.384,5.543c-0.435,0.448 -0.428,0.923 0.019,1.358l23.241,22.575c0.447,0.435 0.923,0.428 1.357,-0.019l5.117,-5.268Z" style="fill:#c5dcf1;fill-rule:nonzero;"/><path d="M104.56,73.533c-0.501,0.373 -0.57,0.843 -0.197,1.343l4.071,5.467c0.372,0.501 0.842,0.57 1.343,0.197l6.429,-4.787l14.706,19.75c0.373,0.501 0.843,0.57 1.343,0.197l5.968,-4.443c0.5,-0.373 0.569,-0.843 0.196,-1.343l-14.705,-19.751l6.429,-4.787c0.501,-0.373 0.57,-0.843 0.197,-1.344l-4.07,-5.467c-0.373,-0.5 -0.843,-0.569 -1.344,-0.196l-20.366,15.164Z" style="fill:#c5dcf1;fill-rule:nonzero;"/><path d="M153.068,81.444c0.464,-0.251 0.73,-0.668 0.582,-1.243l-1.058,-4.776l9.159,-4.961l3.379,3.519c0.401,0.438 0.896,0.444 1.36,0.192l6.964,-3.771c0.591,-0.32 0.681,-0.86 0.15,-1.337l-24.991,-23.366c-0.421,-0.373 -0.83,-0.424 -1.295,-0.173l-7.766,4.206c-0.464,0.252 -0.645,0.623 -0.563,1.178l5.913,33.699c0.109,0.705 0.611,0.925 1.201,0.605l6.965,-3.772Zm-4.871,-24.819l0.169,-0.092l7.629,8.041l-5.191,2.812l-2.607,-10.761Z" style="fill:#c5dcf1;fill-rule:nonzero;"/><path d="M175.239,34.308c-0.225,-0.581 -0.66,-0.773 -1.242,-0.548l-6.937,2.689c-0.582,0.225 -0.774,0.66 -0.548,1.242l11.708,30.21c0.225,0.582 0.66,0.774 1.242,0.549l6.937,-2.689c0.582,-0.225 0.774,-0.66 0.548,-1.242l-11.708,-30.211Z" style="fill:#c5dcf1;fill-rule:nonzero;"/><path d="M202.445,60.587c0.606,-0.147 0.853,-0.553 0.705,-1.16l-1.091,-4.476c-1.024,-4.197 -2.66,-9.085 -4.37,-13.46l0.175,-0.093c1.523,2.396 5.452,7.564 8.75,10.959l5.185,5.258c0.336,0.362 0.766,0.505 1.279,0.38l7.461,-1.82c0.606,-0.148 0.853,-0.554 0.705,-1.16l-7.676,-31.478c-0.148,-0.606 -0.554,-0.853 -1.16,-0.705l-7.135,1.74c-0.606,0.148 -0.853,0.554 -0.705,1.16l1.398,5.736c0.933,3.824 2.12,7.882 3.609,12.164l-0.175,0.092c-1.27,-1.964 -4.599,-6.092 -8.022,-10.001l-5.459,-6.178c-0.347,-0.409 -0.719,-0.516 -1.232,-0.391l-7.508,1.831c-0.606,0.147 -0.853,0.554 -0.705,1.16l7.676,31.477c0.148,0.606 0.554,0.853 1.16,0.705l7.135,-1.74Z" style="fill:#c5dcf1;fill-rule:nonzero;"/><path d="M264.474,28.967c-0.093,-6.287 -4.034,-9.878 -10.705,-9.78l-13.631,0.2c-0.623,0.009 -0.955,0.35 -0.945,0.974l0.475,32.396c0.009,0.624 0.35,0.955 0.974,0.946l13.87,-0.203c7.535,-0.111 11.699,-4.252 11.599,-11.116c-0.055,-3.695 -1.82,-6.214 -4.909,-7.368c2.093,-1.327 3.311,-3.361 3.272,-6.049Zm-15.553,16.406l-0.088,-5.952l4.272,-0.062c2.448,-0.036 3.376,1.102 3.402,2.83c0.029,2.016 -1.155,3.089 -2.979,3.116l-4.607,0.068Zm6.009,-15.738c0.026,1.776 -0.874,2.557 -2.698,2.584l-3.504,0.051l-0.074,-5.039l3.504,-0.052c1.92,-0.028 2.75,0.92 2.772,2.456Z" style="fill:#c5dcf1;fill-rule:nonzero;"/><path d="M285.001,21.865c0.064,-0.621 -0.236,-0.989 -0.857,-1.053l-7.401,-0.762c-0.62,-0.064 -0.989,0.236 -1.053,0.857l-3.316,32.23c-0.064,0.621 0.236,0.989 0.857,1.053l7.401,0.761c0.62,0.064 0.989,-0.235 1.053,-0.856l3.316,-32.23Z" style="fill:#c5dcf1;fill-rule:nonzero;"/><path d="M297.387,57.644c0.607,0.146 1.012,-0.103 1.158,-0.709l2.107,-8.775l2.383,-1.699l4.077,12.827c0.133,0.476 0.45,0.799 0.963,0.923l8.682,2.084c0.746,0.18 1.15,-0.266 0.875,-0.974l-7.317,-20.713l13.207,-10.799c0.623,-0.541 0.455,-1.075 -0.291,-1.255l-9.102,-2.185c-0.513,-0.124 -0.873,-0.062 -1.266,0.337l-9.218,8.992l2.466,-10.268c0.145,-0.606 -0.103,-1.012 -0.71,-1.157l-7.234,-1.738c-0.607,-0.145 -1.012,0.103 -1.158,0.71l-7.565,31.504c-0.146,0.607 0.102,1.012 0.709,1.157l7.234,1.738Z" style="fill:#c5dcf1;fill-rule:nonzero;"/><path d="M334.977,55.175l9.781,3.982c0.577,0.235 1.015,0.051 1.251,-0.527l2.371,-5.824c0.235,-0.578 0.05,-1.016 -0.528,-1.251l-9.78,-3.982l1.683,-4.134l11.514,4.687c0.578,0.235 1.016,0.051 1.251,-0.527l2.444,-6.002c0.235,-0.578 0.05,-1.016 -0.527,-1.251l-19.295,-7.854c-0.578,-0.236 -1.016,-0.051 -1.251,0.527l-12.216,30.008c-0.236,0.578 -0.051,1.016 0.527,1.251l20.05,8.163c0.578,0.235 1.016,0.051 1.251,-0.527l2.443,-6.002c0.236,-0.578 0.051,-1.016 -0.527,-1.251l-12.27,-4.995l1.828,-4.491Z" style="fill:#c5dcf1;fill-rule:nonzero;"/><path d="M371.322,89.083c0.657,0.397 1.111,0.11 1.129,-0.664l-0.071,-12.883c4.337,0.432 7.931,-1.435 10.387,-5.503c3.771,-6.246 2.266,-12.762 -4.883,-17.079l-10.438,-6.301c-0.534,-0.323 -0.995,-0.209 -1.318,0.325l-16.746,27.737c-0.322,0.534 -0.209,0.995 0.326,1.318l6.369,3.845c0.534,0.323 0.995,0.209 1.318,-0.325l4.987,-8.26l1.766,1.067l-0.697,11.186c-0.043,0.534 0.146,0.873 0.598,1.145l7.273,4.392Zm1.685,-28.98c2.342,1.414 2.692,2.971 1.476,4.984c-1.29,2.137 -2.781,2.47 -5.123,1.056l-2.835,-1.712l3.647,-6.04l2.835,1.712Z" style="fill:#c5dcf1;fill-rule:nonzero;"/><path d="M403.245,101.512c4.314,-5.152 2.482,-10.067 -2.093,-16.34c-2.445,-3.362 -2.977,-4.371 -2.114,-5.401c0.586,-0.7 1.71,-0.697 3.882,1.121c1.913,1.603 3.512,3.881 4.379,6.359c0.189,0.597 0.649,0.795 1.215,0.643l6.574,-1.945c0.597,-0.189 0.832,-0.619 0.642,-1.216c-1.433,-4.643 -3.54,-7.66 -6.852,-10.433c-5.814,-4.869 -12.664,-6.035 -16.978,-0.883c-5.301,6.33 -1.181,13.223 1.84,16.942c1.685,2.1 2.878,4.039 1.923,5.18c-0.709,0.846 -2.042,0.794 -4.177,-0.994c-2.355,-1.972 -3.768,-4.845 -4.621,-7.939c-0.121,-0.602 -0.588,-0.868 -1.153,-0.715l-6.722,1.821c-0.566,0.152 -0.837,0.551 -0.716,1.154c1.088,5.355 2.997,8.832 6.861,12.068c7.36,6.164 14.073,5.399 18.11,0.578Z" style="fill:#c5dcf1;fill-rule:nonzero;"/><path d="M425.228,139.217c0.397,0.115 0.707,-0.19 0.876,-0.751l2.172,-6.475c0.207,-0.59 -0.022,-0.96 -0.613,-1.167c-1.801,-0.658 -3.568,-1.894 -4.905,-3.591c-2.019,-2.565 -1.878,-5.18 0.611,-7.14l6.449,-5.077c2.15,-1.692 4.96,-1.46 7.127,1.293c1.128,1.433 1.909,3.201 2.121,4.867c0.092,0.66 0.435,0.94 1.058,0.878l6.774,-0.63c0.585,-0.033 0.932,-0.367 0.87,-0.99c-0.238,-3.173 -1.589,-6.752 -4.053,-9.882c-5.731,-7.279 -12.941,-8.445 -19.39,-3.368l-7.317,5.76c-6.487,5.107 -7.224,12.163 -1.316,19.668c3.058,3.885 6.53,5.734 9.536,6.605Z" style="fill:#c5dcf1;fill-rule:nonzero;"/><path d="M436.65,163.889c0.312,0.541 0.771,0.664 1.311,0.352l5.903,-3.408c0.541,-0.312 0.664,-0.771 0.352,-1.311l-6.096,-10.559l21.325,-12.311c0.541,-0.312 0.664,-0.771 0.352,-1.312l-3.72,-6.443c-0.312,-0.541 -0.771,-0.664 -1.311,-0.352l-28.06,16.199c-0.541,0.312 -0.664,0.771 -0.352,1.312l10.296,17.833Z" style="fill:#c5dcf1;fill-rule:nonzero;"/><path d="M461.376,188.691l18.763,-7.504c0.58,-0.232 0.767,-0.669 0.535,-1.248l-2.799,-6.997c-0.231,-0.579 -0.668,-0.767 -1.247,-0.535l-18.942,7.576c-2.896,1.158 -4.964,0.383 -5.963,-2.113c-1.033,-2.585 -0.035,-4.483 2.862,-5.642l18.941,-7.576c0.579,-0.231 0.767,-0.668 0.535,-1.248l-2.799,-6.997c-0.231,-0.579 -0.668,-0.766 -1.247,-0.534l-18.763,7.504c-8.379,3.351 -11.089,9.501 -7.774,17.791c3.298,8.245 9.52,10.874 17.898,7.523Z" style="fill:#c5dcf1;fill-rule:nonzero;"/><path d="M480.38,220.184c6.15,-1.31 8.908,-5.873 7.517,-12.398l-2.84,-13.333c-0.13,-0.611 -0.528,-0.869 -1.139,-0.739l-31.689,6.75c-0.61,0.13 -0.869,0.529 -0.739,1.139l2.891,13.568c1.57,7.371 6.44,10.652 13.154,9.222c3.615,-0.77 5.743,-2.991 6.276,-6.245c1.708,1.795 3.94,2.596 6.569,2.036Zm-19.112,-12.075l5.822,-1.24l0.89,4.178c0.51,2.394 -0.427,3.526 -2.117,3.886c-1.972,0.42 -3.254,-0.533 -3.634,-2.317l-0.961,-4.507Zm16.605,2.843c-1.737,0.37 -2.678,-0.362 -3.058,-2.146l-0.73,-3.427l4.929,-1.05l0.73,3.427c0.4,1.877 -0.369,2.876 -1.871,3.196Z" style="fill:#c5dcf1;fill-rule:nonzero;"/></g></g></g></g><defs><linearGradient id="_Linear1" x1="0" y1="0" x2="1" y2="0" gradientUnits="userSpaceOnUse" gradientTransform="matrix(3.1351e-14,-512,512,3.1351e-14,96,512)"><stop offset="0" style="stop-color:#9c9;stop-opacity:1"/><stop offset="1" style="stop-color:#69c;stop-opacity:1"/></linearGradient><linearGradient id="_Linear2" x1="0" y1="0" x2="1" y2="0" gradientUnits="userSpaceOnUse" gradientTransform="matrix(1.41447e-14,-231,231,1.41447e-14,390,337)"><stop offset="0" style="stop-color:#f2f0ec;stop-opacity:0.733333"/><stop offset="0.49" style="stop-color:#f2f0ec;stop-opacity:0.540654"/><stop offset="1" style="stop-color:#f2f0ec;stop-opacity:0"/></linearGradient><linearGradient id="_Linear3" x1="0" y1="0" x2="1" y2="0" gradientUnits="userSpaceOnUse" gradientTransform="matrix(1.89208e-14,-309,309,1.89208e-14,343,337)"><stop offset="0" style="stop-color:#fff;stop-opacity:0.768627"/><stop offset="0.5" style="stop-color:#fff;stop-opacity:0.578731"/><stop offset="1" style="stop-color:#fff;stop-opacity:0"/></linearGradient></defs></svg>