<svg width="20" height="20" viewBox="0 0 20 20" xmlns="http://www.w3.org/2000/svg"><g fill="none" transform="translate(5.5)"><path d="m9 4.5a4.5 4.5 0 1 0 -6 4.24v10.76a.5.5 0 0 0 .92.28l2-3a.5.5 0 0 0 .08-.28v-7.76a4.5 4.5 0 0 0 3-4.24z" fill="#2d2d2d"/><path d="m5 16.35-1 1.5v-8.88a4.58 4.58 0 0 0 1 0z" fill="#d3d0c8"/><path d="m4.5 8a3.5 3.5 0 1 1 0-7 3.5 3.5 0 0 1 0 7z" fill="#69c"/><path d="m2.5 5a.5.5 0 0 1 -.5-.5 2.5 2.5 0 0 1 2.5-2.5.5.5 0 0 1 0 1c-.83 0-1.5.67-1.5 1.5a.5.5 0 0 1 -.5.5z" fill="#2d2d2d"/></g></svg>
